<svg viewBox="0 0 54 72" fill="none" xmlns="http://www.w3.org/2000/svg">
<path d="M49.1755 9.52125L47.9785 5.67281C47.8049 5.11264 47.4709 4.62534 47.024 4.28016C46.5771 3.93498 46.04 3.74948 45.4891 3.75H37.5109C36.96 3.74948 36.4229 3.93498 35.976 4.28016C35.5291 4.62534 35.1951 5.11264 35.0215 5.67281L33.8245 9.52125C33.5065 9.6642 33.235 9.90446 33.0439 10.212C32.8527 10.5195 32.7505 10.8806 32.75 11.25V15.9375C32.75 16.6434 33.1201 17.2519 33.6591 17.5716C33.6478 17.6334 33.625 17.6897 33.625 17.7544V19.6875C33.625 19.9361 33.7172 20.1746 33.8813 20.3504C34.0454 20.5262 34.2679 20.625 34.5 20.625H35.375C35.6071 20.625 35.8296 20.5262 35.9937 20.3504C36.1578 20.1746 36.25 19.9361 36.25 19.6875V17.8125H46.75V19.6875C46.75 19.9361 46.8422 20.1746 47.0063 20.3504C47.1704 20.5262 47.3929 20.625 47.625 20.625H48.5C48.7321 20.625 48.9546 20.5262 49.1187 20.3504C49.2828 20.1746 49.375 19.9361 49.375 19.6875V17.7544C49.375 17.6897 49.3523 17.6325 49.3409 17.5716C49.6151 17.4114 49.8441 17.1752 50.0041 16.8878C50.164 16.6003 50.2489 16.2721 50.25 15.9375V11.25C50.25 10.4728 49.8055 9.80531 49.1755 9.52125ZM34.5 15.9375V11.25H48.5L48.5018 15.9375H34.5ZM37.5109 5.625H45.4883C45.8654 5.625 46.1996 5.88188 46.3186 6.26625L47.2864 9.375H35.7136L36.6805 6.26625C36.7386 6.0795 36.85 5.91706 36.999 5.80196C37.1481 5.68687 37.3272 5.62495 37.5109 5.625Z" fill="black"/>
<path d="M36.6875 15C37.4124 15 38 14.3704 38 13.5937C38 12.8171 37.4124 12.1875 36.6875 12.1875C35.9626 12.1875 35.375 12.8171 35.375 13.5937C35.375 14.3704 35.9626 15 36.6875 15Z" fill="black"/>
<path d="M46.3125 15C47.0374 15 47.625 14.3704 47.625 13.5937C47.625 12.8171 47.0374 12.1875 46.3125 12.1875C45.5876 12.1875 45 12.8171 45 13.5937C45 14.3704 45.5876 15 46.3125 15Z" fill="black"/>
<g clip-path="url(#clip0)">
<path d="M9.625 50V52.9237L11.375 52.45V50H9.625ZM6.895 51.1923L5.6525 52.3438L7.51625 54.0833L8.75 52.9237L6.895 51.1923ZM14.105 51.1923L12.25 52.9237L13.4837 54.0833L15.3475 52.352L14.105 51.1923ZM10.5 54.0833C10.0359 54.0833 9.59075 54.2554 9.26256 54.5617C8.93437 54.868 8.75 55.2835 8.75 55.7167V56.5333H5.6875C5.11 56.5333 4.62 56.8763 4.445 57.35L2.625 62.25V68.7833C2.625 68.9999 2.71719 69.2076 2.88128 69.3608C3.04538 69.514 3.26794 69.6 3.5 69.6H4.375C4.60706 69.6 4.82962 69.514 4.99372 69.3608C5.15781 69.2076 5.25 68.9999 5.25 68.7833V67.9667H15.75V68.7833C15.75 68.9999 15.8422 69.2076 16.0063 69.3608C16.1704 69.514 16.3929 69.6 16.625 69.6H17.5C17.7321 69.6 17.9546 69.514 18.1187 69.3608C18.2828 69.2076 18.375 68.9999 18.375 68.7833V62.25L16.555 57.35C16.38 56.8763 15.89 56.5333 15.3125 56.5333H12.25V55.7167C12.25 55.2835 12.0656 54.868 11.7374 54.5617C11.4092 54.2554 10.9641 54.0833 10.5 54.0833ZM5.6875 57.7583H15.3125L16.625 61.4333H4.375L5.6875 57.7583ZM5.6875 63.0667C6.0356 63.0667 6.36944 63.1957 6.61558 63.4255C6.86172 63.6552 7 63.9668 7 64.2917C7 64.6166 6.86172 64.9281 6.61558 65.1579C6.36944 65.3876 6.0356 65.5167 5.6875 65.5167C5.3394 65.5167 5.00556 65.3876 4.75942 65.1579C4.51328 64.9281 4.375 64.6166 4.375 64.2917C4.375 63.9668 4.51328 63.6552 4.75942 63.4255C5.00556 63.1957 5.3394 63.0667 5.6875 63.0667ZM15.3125 63.0667C15.6606 63.0667 15.9944 63.1957 16.2406 63.4255C16.4867 63.6552 16.625 63.9668 16.625 64.2917C16.625 64.6166 16.4867 64.9281 16.2406 65.1579C15.9944 65.3876 15.6606 65.5167 15.3125 65.5167C14.9644 65.5167 14.6306 65.3876 14.3844 65.1579C14.1383 64.9281 14 64.6166 14 64.2917C14 63.9668 14.1383 63.6552 14.3844 63.4255C14.6306 63.1957 14.9644 63.0667 15.3125 63.0667Z" fill="black"/>
</g>
<path d="M11.5 47C11.5 28.5 41 39.5 41 23.5" stroke="black" stroke-width="2" stroke-dasharray="5 5"/>
<defs>
<clipPath id="clip0">
<rect width="21" height="19.6" fill="white" transform="translate(0 50)"/>
</clipPath>
</defs>
</svg>
