<svg viewBox="0 0 70 65" fill="none" xmlns="http://www.w3.org/2000/svg">
<path d="M31.9194 0V9.69583L37.7229 8.125V0H31.9194ZM22.8658 3.95417L18.7453 7.77292L24.9261 13.5417L29.0176 9.69583L22.8658 3.95417ZM46.7765 3.95417L40.6247 9.69583L44.7162 13.5417L50.8971 7.8L46.7765 3.95417ZM34.8212 13.5417C33.282 13.5417 31.8058 14.1124 30.7174 15.1282C29.629 16.144 29.0176 17.5217 29.0176 18.9583V21.6667H18.8613C16.9462 21.6667 15.3212 22.8042 14.7408 24.375L8.70508 40.625V62.2917C8.70508 63.01 9.0108 63.6988 9.55499 64.2067C10.0992 64.7147 10.8373 65 11.6069 65H14.5087C15.2783 65 16.0163 64.7147 16.5605 64.2067C17.1047 63.6988 17.4104 63.01 17.4104 62.2917V59.5833H52.2319V62.2917C52.2319 63.01 52.5376 63.6988 53.0818 64.2067C53.626 64.7147 54.3641 65 55.1337 65H58.0354C58.805 65 59.5431 64.7147 60.0873 64.2067C60.6315 63.6988 60.9372 63.01 60.9372 62.2917V40.625L54.9015 24.375C54.3212 22.8042 52.6962 21.6667 50.781 21.6667H40.6247V18.9583C40.6247 17.5217 40.0133 16.144 38.9249 15.1282C37.8365 14.1124 36.3604 13.5417 34.8212 13.5417ZM18.8613 25.7292H50.781L55.1337 37.9167H14.5087L18.8613 25.7292ZM18.8613 43.3333C20.0157 43.3333 21.1229 43.7613 21.9391 44.5232C22.7554 45.2851 23.214 46.3184 23.214 47.3958C23.214 48.4733 22.7554 49.5066 21.9391 50.2685C21.1229 51.0303 20.0157 51.4583 18.8613 51.4583C17.7069 51.4583 16.5998 51.0303 15.7835 50.2685C14.9672 49.5066 14.5087 48.4733 14.5087 47.3958C14.5087 46.3184 14.9672 45.2851 15.7835 44.5232C16.5998 43.7613 17.7069 43.3333 18.8613 43.3333ZM50.781 43.3333C51.9354 43.3333 53.0425 43.7613 53.8588 44.5232C54.6751 45.2851 55.1337 46.3184 55.1337 47.3958C55.1337 48.4733 54.6751 49.5066 53.8588 50.2685C53.0425 51.0303 51.9354 51.4583 50.781 51.4583C49.6266 51.4583 48.5195 51.0303 47.7032 50.2685C46.8869 49.5066 46.4283 48.4733 46.4283 47.3958C46.4283 46.3184 46.8869 45.2851 47.7032 44.5232C48.5195 43.7613 49.6266 43.3333 50.781 43.3333Z" fill="black"/>
</svg>
